<?xml version="1.0" encoding="utf-8"?>
<!-- Generator: Adobe Illustrator 16.0.0, SVG Export Plug-In . SVG Version: 6.00 Build 0)  -->
<!DOCTYPE svg PUBLIC "-//W3C//DTD SVG 1.1//EN" "http://www.w3.org/Graphics/SVG/1.1/DTD/svg11.dtd">
<svg version="1.1" id="Layer_1" xmlns="http://www.w3.org/2000/svg" xmlns:xlink="http://www.w3.org/1999/xlink" x="0px" y="0px"
	 width="48px" height="48px" viewBox="0 0 48 48" enable-background="new 0 0 48 48" xml:space="preserve">
<circle fill="#FFFFFF" cx="24" cy="24" r="14.188"/>
<path fill="#375F99" d="M20.894,35.969h4.946v-11.97h3.301l0.438-4.125h-3.736l0.007-2.064c0-1.075,0.104-1.652,1.646-1.652h2.063
	v-4.125h-3.302c-3.964,0-5.359,2.001-5.359,5.366v2.476h-2.47V24h2.47L20.894,35.969L20.894,35.969z M24,46C11.851,46,2,36.15,2,24
	C2,11.85,11.851,2,24,2c12.15,0,22,9.85,22,22C46,36.15,36.15,46,24,46z"/>
</svg>
