<?xml version="1.0" encoding="utf-8"?>
<!-- Generator: Adobe Illustrator 16.0.0, SVG Export Plug-In . SVG Version: 6.00 Build 0)  -->
<!DOCTYPE svg PUBLIC "-//W3C//DTD SVG 1.1//EN" "http://www.w3.org/Graphics/SVG/1.1/DTD/svg11.dtd">
<svg version="1.1" id="Layer_1" xmlns="http://www.w3.org/2000/svg" xmlns:xlink="http://www.w3.org/1999/xlink" x="0px" y="0px"
	 width="48px" height="48px" viewBox="0 0 48 48" enable-background="new 0 0 48 48" xml:space="preserve">
<g>
	<path fill="#007AB9" d="M24,46C11.85,46,2,36.15,2,24S11.85,2,24,2s22,9.85,22,22S36.15,46,24,46z"/>
	<path fill="#FFFFFF" d="M36.346,34.368v-8.589c0-4.602-2.457-6.742-5.73-6.742c-2.644,0-3.828,1.453-4.488,2.473v-2.121h-4.979
		c0.066,1.405,0,14.979,0,14.979h4.979v-8.366c0-0.446,0.032-0.894,0.164-1.213c0.36-0.896,1.179-1.821,2.554-1.821
		c1.803,0,2.522,1.373,2.522,3.387v8.015L36.346,34.368L36.346,34.368z M15.902,17.344c1.736,0,2.817-1.151,2.817-2.59
		c-0.032-1.468-1.081-2.587-2.784-2.587s-2.817,1.117-2.817,2.587c0,1.438,1.081,2.59,2.753,2.59H15.902z M18.392,34.368V19.389
		h-4.979v14.979H18.392z"/>
</g>
</svg>
