<?xml version="1.0" encoding="utf-8"?>
<!-- Generator: Adobe Illustrator 16.0.0, SVG Export Plug-In . SVG Version: 6.00 Build 0)  -->
<!DOCTYPE svg PUBLIC "-//W3C//DTD SVG 1.1//EN" "http://www.w3.org/Graphics/SVG/1.1/DTD/svg11.dtd">
<svg version="1.1" id="Layer_1" xmlns="http://www.w3.org/2000/svg" xmlns:xlink="http://www.w3.org/1999/xlink" x="0px" y="0px"
	 width="426px" height="130.75px" viewBox="0 0 426 130.75" enable-background="new 0 0 426 130.75" xml:space="preserve">
<g>
	<g>
		
			<linearGradient id="SVGID_1_" gradientUnits="userSpaceOnUse" x1="590.0645" y1="802.4268" x2="496.3652" y2="802.4268" gradientTransform="matrix(1 0 0 1 -493.3652 -737.3906)">
			<stop  offset="0.1441" style="stop-color:#FFFFFF;stop-opacity:0"/>
			<stop  offset="0.1642" style="stop-color:#FFFFFF;stop-opacity:0.0358"/>
			<stop  offset="0.7076" style="stop-color:#FFFFFF"/>
		</linearGradient>
		<path fill="url(#SVGID_1_)" d="M66.046,128.074c6.222,0,12.229-0.904,17.906-2.58c0.474-1.063,0.921-2.127,1.367-3.186
			c0.613-1.482,1.205-2.963,1.766-4.463c-4.242,3.303-8.925,5.613-13.881,6.762c3.044-3.145,5.762-8.275,7.969-14.908
			c3.24-0.58,6.378-1.336,9.402-2.262c0.295-1.031,0.577-2.064,0.856-3.104c-2.992,0.998-6.122,1.816-9.352,2.459
			c1.813-6.211,3.222-13.531,4.112-21.617c3.25-0.354,6.391-0.795,9.372-1.314c0.122-0.92,0.248-1.848,0.365-2.775
			c-2.977,0.543-6.146,0.99-9.471,1.361c0.249-2.609,0.437-5.305,0.565-8.055c-0.222,0.021-0.44,0.051-0.657,0.051h-2.041
			c-0.129,2.85-0.331,5.615-0.588,8.285c-5.488,0.52-11.384,0.826-17.661,0.826c-6.259,0-12.165-0.307-17.652-0.818
			c-0.522-5.49-0.817-11.395-0.817-17.662c0-6.27,0.295-12.166,0.817-17.654c5.488-0.523,11.385-0.817,17.652-0.817
			c6.277,0,12.173,0.294,17.661,0.817c0.317,3.332,0.54,6.832,0.674,10.466l2.419-5.427c-0.108-1.608-0.222-3.198-0.373-4.76
			c0.807,0.088,1.583,0.191,2.369,0.285l1.135-2.542c-1.237-0.161-2.494-0.323-3.77-0.464c-0.892-8.089-2.3-15.417-4.112-21.624
			c5.176,1.016,10.091,2.527,14.622,4.446c-0.163-1.036-0.337-2.082-0.533-3.117c-4.679-1.857-9.708-3.284-14.996-4.226
			C78.964,13.81,76.241,8.67,73.18,5.523c8.38,1.934,15.944,7.219,21.974,14.863c-0.61-2.182-1.33-4.306-2.15-6.389
			c-2.358-2.343-4.884-4.394-7.548-6.1c2.045,0.694,4.048,1.497,5.995,2.403c-0.548-1.229-1.106-2.458-1.684-3.671
			C82.448,3.654,74.457,2,66.085,2C31.306,2,3,30.295,3,65.083c0,15.914,5.924,30.464,15.683,41.572
			c0.147,0.174,0.3,0.348,0.455,0.52c0.116,0.125,0.229,0.25,0.347,0.381C31.021,120.164,47.61,128.074,66.046,128.074z
			 M66.078,125.459c-4.258,0-8.664-5.549-12.103-15.281c3.92,0.566,7.96,0.859,12.103,0.859c4.144,0,8.197-0.293,12.113-0.859
			C74.752,119.91,70.346,125.459,66.078,125.459z M58.983,124.639c-10.244-2.373-19.289-9.781-25.769-20.348
			c5.443,2.436,11.419,4.264,17.778,5.406C53.203,116.35,55.923,121.484,58.983,124.639z M66.078,86.244
			c6.061,0,11.873-0.285,17.385-0.797c-0.952,8.461-2.458,15.84-4.33,21.871c-4.205,0.672-8.572,1.027-13.054,1.027
			c-4.482,0-8.839-0.363-13.052-1.027c-1.86-6.031-3.369-13.41-4.32-21.863C54.207,85.963,60.03,86.244,66.078,86.244z
			 M50.09,106.795c-6.973-1.377-13.432-3.619-19.161-6.568c-2.945-5.723-5.193-12.191-6.56-19.162
			c6.206,1.822,13.525,3.232,21.607,4.111C46.866,93.27,48.273,100.588,50.09,106.795z M45.705,82.455
			C37.252,81.504,29.869,80,23.84,78.133c-0.672-4.209-1.036-8.57-1.036-13.05c0-4.482,0.364-8.851,1.036-13.062
			c6.03-1.862,13.412-3.369,21.865-4.319c-0.519,5.512-0.794,11.324-0.794,17.381C44.91,71.133,45.186,76.955,45.705,82.455z
			 M45.976,44.971c-8.083,0.893-15.402,2.297-21.616,4.113c1.375-6.971,3.623-13.435,6.569-19.162
			c5.729-2.945,12.188-5.194,19.161-6.562C48.273,29.562,46.866,36.889,45.976,44.971z M83.462,44.7
			c-5.503-0.51-11.324-0.791-17.385-0.791c-6.048,0-11.871,0.281-17.373,0.791c0.951-8.463,2.459-15.828,4.32-21.865
			c4.205-0.664,8.57-1.025,13.052-1.025c4.49,0,8.849,0.361,13.062,1.035C81.004,28.879,82.51,36.245,83.462,44.7z M66.078,4.689
			c4.269,0,8.674,5.547,12.113,15.279c-3.925-0.563-7.969-0.856-12.113-0.856c-4.143,0-8.183,0.302-12.103,0.856
			C57.413,10.236,61.82,4.689,66.078,4.689z M50.993,20.457c-6.359,1.135-12.335,2.973-17.778,5.396
			C39.694,15.302,48.739,7.887,58.984,5.515C55.923,8.662,53.203,13.8,50.993,20.457z M46.697,7.897
			c-7.073,4.536-13.18,11.476-17.741,20.056C20.377,32.512,13.447,38.62,8.9,45.7C14.931,27.97,28.973,13.925,46.697,7.897z
			 M26.862,32.207c-2.426,5.442-4.266,11.422-5.407,17.778c-6.651,2.213-11.789,4.934-14.934,7.994
			C8.893,47.732,16.298,38.687,26.862,32.207z M20.974,52.971c-0.555,3.917-0.855,7.97-0.855,12.104
			c0,4.144,0.301,8.189,0.855,12.113c-9.724-3.441-15.278-7.85-15.278-12.113C5.696,60.812,11.25,56.411,20.974,52.971z
			 M21.455,80.166c1.143,6.357,2.982,12.336,5.407,17.779C16.298,91.461,8.893,82.422,6.52,72.174
			C9.666,75.238,14.804,77.959,21.455,80.166z M28.948,102.203c4.569,8.582,10.665,15.512,17.749,20.049
			c-17.724-6.029-31.766-20.063-37.796-37.793C13.439,91.539,20.377,97.635,28.948,102.203z"/>
	</g>
	<g>
		<path fill="#FFFFFF" d="M155.8,16.225c-4.02,0-7.275,3.365-7.275,7.517c0,1.582,0.476,3.05,1.284,4.261L138.704,39.11
			c-1.302-1.253-3.043-2.021-4.96-2.021c-2.467,0-4.643,1.269-5.961,3.207l-14.737-5.946c0.018-0.211,0.027-0.427,0.027-0.645
			c0-4.151-3.258-7.517-7.271-7.517c-4.02,0-7.278,3.366-7.278,7.517c0,3.089,1.797,5.736,4.372,6.894l-7.162,25.855
			c-0.387-0.063-0.784-0.1-1.187-0.1c-1.786,0-3.42,0.666-4.688,1.768l-14.592-9.49c0.186-0.661,0.286-1.361,0.286-2.086
			c0-4.152-3.256-7.518-7.275-7.518s-7.274,3.365-7.274,7.518c0,4.15,3.256,7.515,7.274,7.515c2.217,0,4.2-1.026,5.533-2.642
			l14.166,9.21c-0.451,0.98-0.708,2.08-0.708,3.24c0,4.148,3.26,7.518,7.279,7.518c4.017,0,7.275-3.367,7.275-7.518
			c0-2.58-1.258-4.854-3.176-6.209l7.324-26.443c2.661-0.064,4.966-1.604,6.181-3.854l14.448,5.827
			c-0.084,0.456-0.132,0.931-0.132,1.413c0,4.15,3.258,7.516,7.277,7.516c4.013,0,7.272-3.365,7.272-7.516
			c0-1.009-0.191-1.967-0.538-2.845l11.577-11.577c1.094,0.681,2.377,1.074,3.745,1.074c4.019,0,7.272-3.368,7.272-7.517
			C163.072,19.59,159.819,16.225,155.8,16.225z M68.279,60.932c-2.287,0-4.144-1.967-4.144-4.385c0-2.42,1.857-4.389,4.144-4.389
			c2.286,0,4.145,1.969,4.145,4.389C72.424,58.965,70.565,60.932,68.279,60.932z M94.548,78.26c-2.285,0-4.146-1.971-4.146-4.389
			c0-2.42,1.86-4.385,4.146-4.385c2.281,0,4.145,1.965,4.145,4.385C98.691,76.289,96.829,78.26,94.548,78.26z M105.802,38.094
			c-2.287,0-4.15-1.967-4.15-4.388c0-2.417,1.863-4.383,4.15-4.383c2.28,0,4.144,1.966,4.144,4.383
			C109.945,36.125,108.082,38.094,105.802,38.094z M133.743,48.993c-2.287,0-4.145-1.968-4.145-4.386s1.857-4.389,4.145-4.389
			c2.283,0,4.145,1.97,4.145,4.389C137.887,47.024,136.027,48.993,133.743,48.993z M155.8,28.129c-2.288,0-4.145-1.969-4.145-4.387
			c0-2.42,1.857-4.389,4.145-4.389c2.285,0,4.142,1.968,4.142,4.389C159.942,26.16,158.085,28.129,155.8,28.129z"/>
	</g>
	<g>
		<path fill="#FFFFFF" d="M139.309,63.437l-2.109,3.106c-2.755-1.816-5.099-2.695-8.029-2.695c-3.633,0-5.978,1.699-5.978,4.335
			c0,2.637,1.759,3.809,6.857,5.158c6.505,1.697,10.139,4.158,10.139,9.553c0,6.27-5.685,9.26-11.896,9.26
			c-5.216,0-8.85-1.699-11.545-4.045l2.637-2.988c2.521,1.875,5.333,3.049,8.79,3.049c4.103,0,6.857-1.877,6.857-4.98
			c0-3.227-1.583-4.396-7.678-6.037c-6.623-1.758-9.26-4.514-9.26-8.85c0-4.864,4.63-8.38,10.901-8.38
			C133.214,59.92,136.379,61.209,139.309,63.437z"/>
		<path fill="#FFFFFF" d="M173.883,75.979c0,9.436-4.103,16.174-12.014,16.174c-3.458,0-6.271-1.23-8.204-3.635v14.711l-4.923,0.588
			V60.624h4.219l0.41,4.278c2.228-3.165,5.51-4.981,9.143-4.981C170.602,59.92,173.883,66.191,173.883,75.979z M168.61,75.979
			c0-8.205-2.461-12.131-7.268-12.131c-3.399,0-5.978,2.344-7.677,4.922v15.414c1.641,2.461,4.102,3.926,7.091,3.926
			C165.855,88.109,168.61,84.242,168.61,75.979z"/>
		<path fill="#FFFFFF" d="M206.348,88.695l-1.172,3.459c-2.988-0.41-4.923-1.641-5.743-4.748c-2.168,3.281-5.45,4.748-9.259,4.748
			c-6.095,0-9.729-3.811-9.729-9.318c0-6.564,4.924-10.08,13.362-10.08h5.04v-2.463c0-4.57-2.168-6.328-6.622-6.328
			c-2.345,0-5.156,0.586-8.323,1.699l-1.231-3.633c3.692-1.408,7.032-2.109,10.433-2.109c7.325,0,10.666,3.75,10.666,10.138v14.301
			C203.77,87.23,204.707,88.109,206.348,88.695z M198.846,83.361v-7.324h-4.396c-5.742,0-8.79,2.168-8.79,6.564
			c0,3.75,1.934,5.801,5.625,5.801C194.627,88.402,197.088,86.703,198.846,83.361z"/>
		<path fill="#FFFFFF" d="M230.902,90.102c-1.992,1.348-4.221,2.053-6.799,2.053c-5.1,0-8.146-2.99-8.146-8.617V64.433h-5.333v-3.81
			h5.333v-7.09l4.924-0.527v7.619h7.443l-0.528,3.809h-6.915v18.871c0,3.225,1.113,4.748,3.868,4.748
			c1.466,0,2.755-0.41,4.278-1.289L230.902,90.102z"/>
		<path fill="#FFFFFF" d="M243.087,49.489c0,1.936-1.404,3.399-3.517,3.399c-2.051,0-3.457-1.464-3.457-3.399
			c0-1.935,1.406-3.398,3.457-3.398C241.683,46.09,243.087,47.554,243.087,49.489z M242.092,91.449h-4.923V60.624h4.923V91.449z"/>
		<path fill="#FFFFFF" d="M277.078,88.695l-1.172,3.459c-2.988-0.41-4.924-1.641-5.744-4.748c-2.168,3.281-5.448,4.748-9.26,4.748
			c-6.095,0-9.728-3.811-9.728-9.318c0-6.564,4.922-10.08,13.36-10.08h5.041v-2.463c0-4.57-2.168-6.328-6.621-6.328
			c-2.346,0-5.158,0.586-8.323,1.699l-1.229-3.633c3.69-1.408,7.032-2.109,10.43-2.109c7.326,0,10.666,3.75,10.666,10.138v14.301
			C274.499,87.23,275.438,88.109,277.078,88.695z M269.576,83.361v-7.324h-4.396c-5.743,0-8.79,2.168-8.79,6.564
			c0,3.75,1.934,5.801,5.625,5.801C265.357,88.402,267.818,86.703,269.576,83.361z"/>
		<path fill="#FFFFFF" d="M285.573,85.59V48.2l4.922-0.586v37.861c0,1.697,0.586,2.578,2.053,2.578c0.762,0,1.405-0.117,1.991-0.354
			l1.29,3.457c-1.112,0.588-2.579,0.996-4.104,0.996C287.977,92.154,285.573,89.867,285.573,85.59z"/>
		<path fill="#FFFFFF" d="M309.424,49.489c0,1.936-1.405,3.399-3.516,3.399c-2.053,0-3.457-1.464-3.457-3.399
			c0-1.935,1.404-3.398,3.457-3.398C308.019,46.09,309.424,47.554,309.424,49.489z M308.428,91.449h-4.922V60.624h4.922V91.449z"/>
		<path fill="#FFFFFF" d="M335.619,90.102c-1.992,1.348-4.222,2.053-6.799,2.053c-5.099,0-8.146-2.99-8.146-8.617V64.433h-5.332
			v-3.81h5.332v-7.09l4.923-0.527v7.619h7.444l-0.527,3.809h-6.915v18.871c0,3.225,1.112,4.748,3.866,4.748
			c1.466,0,2.755-0.41,4.279-1.289L335.619,90.102z"/>
		<path fill="#FFFFFF" d="M347.806,49.489c0,1.936-1.404,3.399-3.516,3.399c-2.052,0-3.458-1.464-3.458-3.399
			c0-1.935,1.406-3.398,3.458-3.398C346.401,46.09,347.806,47.554,347.806,49.489z M346.811,91.449h-4.922V60.624h4.922V91.449z"/>
		<path fill="#FFFFFF" d="M379.159,63.202l-2.403,3.107c-2.052-1.523-4.043-2.286-6.681-2.286c-5.04,0-8.265,3.926-8.265,12.188
			c0,8.205,3.225,11.723,8.265,11.723c2.638,0,4.513-0.818,6.798-2.402l2.286,3.223c-2.639,2.23-5.744,3.4-9.261,3.4
			c-8.205,0-13.361-5.918-13.361-15.881c0-9.846,5.099-16.351,13.361-16.351C373.474,59.92,376.346,60.859,379.159,63.202z"/>
		<path fill="#FFFFFF" d="M405.763,63.437l-2.108,3.106c-2.755-1.816-5.1-2.695-8.029-2.695c-3.633,0-5.979,1.699-5.979,4.335
			c0,2.637,1.76,3.809,6.857,5.158c6.505,1.697,10.139,4.158,10.139,9.553c0,6.27-5.685,9.26-11.896,9.26
			c-5.216,0-8.85-1.699-11.545-4.045l2.639-2.988c2.52,1.875,5.332,3.049,8.789,3.049c4.104,0,6.857-1.877,6.857-4.98
			c0-3.227-1.581-4.396-7.678-6.037c-6.622-1.758-9.26-4.514-9.26-8.85c0-4.864,4.63-8.38,10.901-8.38
			C399.668,59.92,402.833,61.209,405.763,63.437z"/>
	</g>
	<g>
		<g>
			<path fill="#FFFFFF" d="M413.009,52.852h-2.412v7.855h-1.783v-7.855h-2.493v-1.406h6.878L413.009,52.852z"/>
			<path fill="#FFFFFF" d="M423,60.708h-1.729l-0.24-3.873c-0.08-1.369-0.148-2.803-0.121-3.781l-1.69,6.648h-1.676l-1.796-6.662
				c0.055,1.246,0.026,2.521-0.055,3.847l-0.229,3.821h-1.716l0.736-9.264h2.279l1.648,6.488l1.556-6.488h2.307L423,60.708z"/>
		</g>
	</g>
</g>
</svg>
