<?xml version="1.0" encoding="utf-8"?>
<!-- Generator: Adobe Illustrator 16.0.0, SVG Export Plug-In . SVG Version: 6.00 Build 0)  -->
<!DOCTYPE svg PUBLIC "-//W3C//DTD SVG 1.1//EN" "http://www.w3.org/Graphics/SVG/1.1/DTD/svg11.dtd">
<svg version="1.1" id="Layer_1" xmlns="http://www.w3.org/2000/svg" xmlns:xlink="http://www.w3.org/1999/xlink" x="0px" y="0px"
	 width="426px" height="130.75px" viewBox="0 0 426 130.75" enable-background="new 0 0 426 130.75" xml:space="preserve">
<g>
	<g>
		<linearGradient id="SVGID_1_" gradientUnits="userSpaceOnUse" x1="96.7349" y1="64.813" x2="3.3682" y2="64.813">
			<stop  offset="0.1441" style="stop-color:#FFFFFF;stop-opacity:0"/>
			<stop  offset="0.1642" style="stop-color:#FFFFFF;stop-opacity:0.0358"/>
			<stop  offset="0.7076" style="stop-color:#FFFFFF"/>
		</linearGradient>
		<path fill="url(#SVGID_1_)" d="M66.189,127.627c6.2,0,12.185-0.902,17.843-2.571c0.472-1.061,0.917-2.119,1.362-3.174
			c0.611-1.477,1.201-2.954,1.759-4.447c-4.227,3.291-8.895,5.594-13.833,6.738c3.033-3.134,5.742-8.248,7.941-14.857
			c3.229-0.577,6.355-1.331,9.368-2.254c0.294-1.027,0.575-2.053,0.854-3.088c-2.981,0.994-6.1,1.81-9.318,2.449
			c1.807-6.188,3.21-13.482,4.099-21.541c3.239-0.354,6.368-0.791,9.338-1.31c0.122-0.917,0.248-1.841,0.365-2.767
			c-2.967,0.542-6.124,0.988-9.437,1.358c0.248-2.603,0.435-5.287,0.563-8.026c-0.222,0.021-0.44,0.049-0.655,0.049h-2.034
			c-0.128,2.84-0.329,5.597-0.586,8.255c-5.468,0.521-11.344,0.824-17.598,0.824c-6.237,0-12.121-0.304-17.589-0.816
			c-0.521-5.472-0.815-11.354-0.815-17.6c0-6.247,0.294-12.121,0.815-17.589c5.468-0.522,11.345-0.817,17.589-0.817
			c6.254,0,12.13,0.294,17.598,0.817c0.317,3.318,0.538,6.808,0.672,10.428l2.411-5.407c-0.108-1.603-0.221-3.188-0.371-4.744
			c0.803,0.088,1.577,0.191,2.359,0.285l1.13-2.535c-1.233-0.16-2.486-0.322-3.755-0.462c-0.888-8.06-2.292-15.361-4.099-21.547
			c5.158,1.012,10.055,2.519,14.57,4.43c-0.163-1.031-0.336-2.074-0.531-3.106c-4.662-1.85-9.674-3.271-14.942-4.211
			c-2.199-6.623-4.914-11.744-7.962-14.881c8.35,1.926,15.887,7.193,21.896,14.811c-0.608-2.174-1.325-4.292-2.142-6.368
			c-2.349-2.334-4.866-4.376-7.521-6.077c2.038,0.692,4.034,1.492,5.974,2.394c-0.546-1.224-1.102-2.448-1.678-3.657
			C82.535,3.647,74.572,2,66.23,2C31.574,2,3.368,30.195,3.368,64.857c0,15.856,5.903,30.358,15.627,41.423
			c0.147,0.173,0.299,0.347,0.454,0.519c0.116,0.125,0.228,0.249,0.345,0.378C31.288,119.745,47.818,127.627,66.189,127.627z
			 M66.22,125.021c-4.243,0-8.634-5.529-12.061-15.228c3.906,0.565,7.934,0.856,12.061,0.856c4.129,0,8.167-0.291,12.07-0.856
			C74.864,119.491,70.474,125.021,66.22,125.021z M59.15,124.204c-10.207-2.365-19.221-9.749-25.677-20.275
			c5.423,2.426,11.379,4.246,17.715,5.387C53.391,115.942,56.101,121.061,59.15,124.204z M66.22,85.944
			c6.039,0,11.83-0.284,17.322-0.793c-0.948,8.433-2.45,15.784-4.314,21.792c-4.191,0.67-8.541,1.025-13.008,1.025
			c-4.466,0-8.808-0.363-13.006-1.025c-1.854-6.008-3.356-13.359-4.304-21.784C54.392,85.666,60.194,85.944,66.22,85.944z
			 M50.288,106.423c-6.949-1.371-13.384-3.605-19.093-6.544c-2.935-5.702-5.174-12.148-6.536-19.095
			c6.183,1.816,13.477,3.221,21.531,4.098C47.077,92.946,48.479,100.24,50.288,106.423z M45.919,82.17
			c-8.423-0.949-15.78-2.446-21.787-4.309c-0.67-4.194-1.032-8.539-1.032-13.004c0-4.467,0.362-8.818,1.032-13.016
			c6.007-1.856,13.364-3.357,21.787-4.305c-0.517,5.492-0.792,11.284-0.792,17.32C45.127,70.887,45.402,76.689,45.919,82.17z
			 M46.19,44.817c-8.054,0.889-15.348,2.289-21.54,4.1c1.371-6.947,3.61-13.387,6.545-19.093c5.708-2.936,12.144-5.176,19.093-6.539
			C48.479,29.464,47.077,36.765,46.19,44.817z M83.542,44.548c-5.483-0.507-11.283-0.788-17.322-0.788
			c-6.026,0-11.829,0.281-17.311,0.788c0.948-8.435,2.45-15.771,4.304-21.787c4.19-0.663,8.54-1.023,13.006-1.023
			c4.475,0,8.817,0.36,13.016,1.033C81.093,28.784,82.594,36.122,83.542,44.548z M66.22,4.679c4.254,0,8.644,5.526,12.07,15.224
			c-3.911-0.56-7.94-0.854-12.07-0.854c-4.127,0-8.154,0.3-12.061,0.854C57.586,10.205,61.977,4.679,66.22,4.679z M51.188,20.39
			c-6.336,1.131-12.292,2.964-17.715,5.377C39.929,15.253,48.943,7.866,59.15,5.501C56.101,8.639,53.391,13.757,51.188,20.39z
			 M46.908,7.876C39.86,12.395,33.774,19.31,29.23,27.86c-8.549,4.542-15.455,10.628-19.984,17.683
			C15.255,27.877,29.247,13.882,46.908,7.876z M27.144,32.1c-2.417,5.421-4.25,11.381-5.388,17.714
			c-6.627,2.205-11.747,4.917-14.881,7.965C9.238,47.568,16.617,38.557,27.144,32.1z M21.276,52.79
			c-0.553,3.905-0.853,7.942-0.853,12.06c0,4.129,0.3,8.161,0.853,12.07c-9.689-3.428-15.224-7.818-15.224-12.07
			C6.053,60.603,11.587,56.217,21.276,52.79z M21.755,79.889c1.138,6.335,2.971,12.293,5.388,17.717
			C16.617,91.145,9.238,82.137,6.875,71.927C10.009,74.978,15.128,77.689,21.755,79.889z M29.222,101.849
			c4.552,8.549,10.627,15.455,17.686,19.977c-17.662-6.009-31.653-19.99-37.663-37.658C13.768,91.221,20.681,97.296,29.222,101.849z
			"/>
	</g>
	<g>
		<path fill="#FFFFFF" d="M155.624,16.173c-4.004,0-7.249,3.354-7.249,7.491c0,1.577,0.474,3.04,1.279,4.246l-11.066,11.068
			c-1.297-1.25-3.033-2.014-4.942-2.014c-2.458,0-4.626,1.263-5.94,3.195l-14.685-5.925c0.018-0.211,0.027-0.424,0.027-0.641
			c0-4.137-3.246-7.491-7.245-7.491c-4.005,0-7.251,3.354-7.251,7.491c0,3.076,1.791,5.713,4.356,6.868l-7.138,25.765
			c-0.385-0.064-0.781-0.1-1.181-0.1c-1.78,0-3.408,0.662-4.671,1.76l-14.541-9.454c0.184-0.661,0.285-1.358,0.285-2.08
			c0-4.137-3.244-7.491-7.249-7.491c-4.005,0-7.249,3.354-7.249,7.491c0,4.134,3.244,7.488,7.249,7.488
			c2.209,0,4.186-1.023,5.514-2.632l14.115,9.179c-0.449,0.977-0.706,2.072-0.706,3.229c0,4.135,3.248,7.49,7.253,7.49
			c4.002,0,7.249-3.355,7.249-7.49c0-2.57-1.254-4.838-3.164-6.187l7.297-26.351c2.651-0.064,4.948-1.597,6.159-3.841l14.396,5.808
			c-0.084,0.454-0.131,0.926-0.131,1.408c0,4.135,3.247,7.489,7.251,7.489c3.999,0,7.247-3.354,7.247-7.489
			c0-1.004-0.191-1.959-0.536-2.835l11.536-11.535c1.09,0.678,2.369,1.07,3.731,1.07c4.004,0,7.246-3.355,7.246-7.491
			C162.87,19.527,159.628,16.173,155.624,16.173z M68.414,60.722c-2.279,0-4.129-1.959-4.129-4.368c0-2.412,1.85-4.373,4.129-4.373
			c2.278,0,4.129,1.961,4.129,4.373C72.543,58.762,70.692,60.722,68.414,60.722z M94.589,77.988c-2.277,0-4.131-1.962-4.131-4.371
			c0-2.412,1.854-4.371,4.131-4.371c2.273,0,4.129,1.959,4.129,4.371C98.719,76.026,96.863,77.988,94.589,77.988z M105.803,37.964
			c-2.279,0-4.135-1.959-4.135-4.37c0-2.41,1.856-4.369,4.135-4.369c2.272,0,4.129,1.959,4.129,4.369
			C109.932,36.004,108.076,37.964,105.803,37.964z M133.646,48.826c-2.279,0-4.129-1.961-4.129-4.371s1.851-4.373,4.129-4.373
			c2.275,0,4.129,1.963,4.129,4.373S135.921,48.826,133.646,48.826z M155.624,28.037c-2.279,0-4.129-1.963-4.129-4.373
			c0-2.412,1.85-4.374,4.129-4.374c2.277,0,4.127,1.961,4.127,4.374C159.751,26.074,157.901,28.037,155.624,28.037z"/>
	</g>
	<g>
		<path fill="#FFFFFF" d="M139.189,63.219l-2.102,3.095c-2.745-1.81-5.081-2.686-8-2.686c-3.62,0-5.956,1.694-5.956,4.321
			c0,2.628,1.752,3.796,6.832,5.14c6.482,1.693,10.103,4.146,10.103,9.519c0,6.248-5.664,9.227-11.854,9.227
			c-5.197,0-8.818-1.694-11.504-4.029l2.627-2.979c2.511,1.868,5.314,3.036,8.759,3.036c4.088,0,6.833-1.868,6.833-4.963
			c0-3.212-1.577-4.38-7.65-6.015c-6.599-1.752-9.227-4.497-9.227-8.818c0-4.847,4.613-8.35,10.862-8.35
			C133.116,59.715,136.27,61,139.189,63.219z"/>
		<path fill="#FFFFFF" d="M173.643,75.716c0,9.401-4.088,16.117-11.971,16.117c-3.445,0-6.248-1.227-8.175-3.621v14.657
			l-4.905,0.584V60.416h4.205l0.409,4.263c2.219-3.153,5.489-4.963,9.11-4.963C170.373,59.715,173.643,65.963,173.643,75.716z
			 M168.387,75.716c0-8.176-2.452-12.088-7.241-12.088c-3.387,0-5.957,2.335-7.65,4.905v15.358c1.635,2.453,4.088,3.913,7.066,3.913
			C165.643,87.804,168.387,83.949,168.387,75.716z"/>
		<path fill="#FFFFFF" d="M205.994,88.388l-1.168,3.445c-2.978-0.409-4.905-1.636-5.723-4.73c-2.161,3.271-5.431,4.73-9.227,4.73
			c-6.073,0-9.694-3.796-9.694-9.285c0-6.54,4.905-10.044,13.314-10.044h5.022v-2.453c0-4.555-2.161-6.306-6.599-6.306
			c-2.336,0-5.139,0.583-8.292,1.693l-1.227-3.621c3.679-1.401,7.007-2.102,10.395-2.102c7.299,0,10.628,3.737,10.628,10.102v14.249
			C203.424,86.928,204.358,87.804,205.994,88.388z M198.519,83.073v-7.3h-4.38c-5.723,0-8.759,2.161-8.759,6.541
			c0,3.737,1.927,5.781,5.606,5.781C194.314,88.096,196.767,86.401,198.519,83.073z"/>
		<path fill="#FFFFFF" d="M230.461,89.789c-1.985,1.343-4.204,2.044-6.773,2.044c-5.08,0-8.117-2.979-8.117-8.585V64.211h-5.313
			v-3.795h5.313V53.35l4.905-0.526v7.592h7.416l-0.525,3.795h-6.891v18.803c0,3.212,1.109,4.73,3.854,4.73
			c1.46,0,2.744-0.409,4.263-1.285L230.461,89.789z"/>
		<path fill="#FFFFFF" d="M242.607,49.321c0,1.927-1.402,3.387-3.504,3.387c-2.044,0-3.445-1.46-3.445-3.387
			c0-1.927,1.401-3.387,3.445-3.387C241.205,45.934,242.607,47.394,242.607,49.321z M241.614,91.132h-4.905V60.416h4.905V91.132z"/>
		<path fill="#FFFFFF" d="M276.476,88.388l-1.167,3.445c-2.979-0.409-4.905-1.636-5.724-4.73c-2.16,3.271-5.431,4.73-9.226,4.73
			c-6.073,0-9.694-3.796-9.694-9.285c0-6.54,4.905-10.044,13.314-10.044h5.021v-2.453c0-4.555-2.16-6.306-6.599-6.306
			c-2.335,0-5.139,0.583-8.292,1.693l-1.226-3.621c3.679-1.401,7.007-2.102,10.394-2.102c7.3,0,10.628,3.737,10.628,10.102v14.249
			C273.906,86.928,274.841,87.804,276.476,88.388z M269.001,83.073v-7.3h-4.379c-5.723,0-8.76,2.161-8.76,6.541
			c0,3.737,1.927,5.781,5.606,5.781C264.797,88.096,267.25,86.401,269.001,83.073z"/>
		<path fill="#FFFFFF" d="M284.943,85.292V48.036l4.905-0.584v37.724c0,1.693,0.584,2.569,2.044,2.569
			c0.759,0,1.401-0.117,1.985-0.351l1.285,3.445c-1.11,0.584-2.569,0.993-4.088,0.993C287.338,91.833,284.943,89.555,284.943,85.292
			z"/>
		<path fill="#FFFFFF" d="M308.71,49.321c0,1.927-1.402,3.387-3.504,3.387c-2.044,0-3.445-1.46-3.445-3.387
			c0-1.927,1.401-3.387,3.445-3.387C307.308,45.934,308.71,47.394,308.71,49.321z M307.717,91.132h-4.905V60.416h4.905V91.132z"/>
		<path fill="#FFFFFF" d="M334.812,89.789c-1.985,1.343-4.204,2.044-6.773,2.044c-5.08,0-8.117-2.979-8.117-8.585V64.211h-5.313
			v-3.795h5.313V53.35l4.905-0.526v7.592h7.416l-0.525,3.795h-6.891v18.803c0,3.212,1.109,4.73,3.854,4.73
			c1.46,0,2.744-0.409,4.263-1.285L334.812,89.789z"/>
		<path fill="#FFFFFF" d="M346.959,49.321c0,1.927-1.402,3.387-3.504,3.387c-2.044,0-3.445-1.46-3.445-3.387
			c0-1.927,1.401-3.387,3.445-3.387C345.557,45.934,346.959,47.394,346.959,49.321z M345.966,91.132h-4.905V60.416h4.905V91.132z"/>
		<path fill="#FFFFFF" d="M378.2,62.985l-2.395,3.095c-2.044-1.518-4.029-2.277-6.657-2.277c-5.021,0-8.233,3.912-8.233,12.146
			c0,8.175,3.212,11.679,8.233,11.679c2.628,0,4.496-0.817,6.774-2.394l2.277,3.211c-2.628,2.22-5.723,3.388-9.227,3.388
			c-8.176,0-13.314-5.898-13.314-15.825c0-9.812,5.08-16.292,13.314-16.292C372.535,59.715,375.396,60.649,378.2,62.985z"/>
		<path fill="#FFFFFF" d="M404.711,63.219l-2.103,3.095c-2.744-1.81-5.08-2.686-8-2.686c-3.62,0-5.956,1.694-5.956,4.321
			c0,2.628,1.752,3.796,6.832,5.14c6.482,1.693,10.103,4.146,10.103,9.519c0,6.248-5.664,9.227-11.854,9.227
			c-5.197,0-8.817-1.694-11.504-4.029l2.628-2.979c2.511,1.868,5.314,3.036,8.76,3.036c4.087,0,6.832-1.868,6.832-4.963
			c0-3.212-1.577-4.38-7.649-6.015c-6.6-1.752-9.227-4.497-9.227-8.818c0-4.847,4.613-8.35,10.861-8.35
			C398.638,59.715,401.791,61,404.711,63.219z"/>
	</g>
	<g>
		<g>
			<path fill="#FFFFFF" d="M411.925,52.666h-2.405v7.833h-1.778v-7.833h-2.486v-1.403h6.857L411.925,52.666z"/>
			<path fill="#FFFFFF" d="M421.883,60.499h-1.725l-0.24-3.863c-0.08-1.364-0.147-2.794-0.12-3.77l-1.685,6.63h-1.671l-1.791-6.643
				c0.054,1.243,0.026,2.513-0.054,3.836l-0.227,3.81h-1.711l0.734-9.236h2.272l1.645,6.469l1.551-6.469h2.299L421.883,60.499z"/>
		</g>
	</g>
	<g>
		<path fill="#FFFFFF" d="M322.812,115.088h-10.146v11.063h-2.919v-23.348h2.919v9.841h10.146v-9.841h2.952v23.348h-2.952V115.088z"
			/>
		<path fill="#FFFFFF" d="M345.789,118.211h-11.504c0.306,4.31,2.273,6.006,4.988,6.006c1.799,0,3.122-0.509,4.684-1.595
			l1.256,1.696c-1.731,1.392-3.699,2.24-6.143,2.24c-4.921,0-7.806-3.495-7.806-9.162c0-5.6,2.783-9.502,7.33-9.502
			c4.785,0,7.263,3.359,7.263,8.755C345.857,117.26,345.823,117.837,345.789,118.211z M343.041,115.835
			c0-3.597-1.426-5.667-4.378-5.667c-2.478,0-4.141,1.765-4.378,5.938h8.756V115.835z"/>
		<path fill="#FFFFFF" d="M363.98,124.557l-0.678,2.002c-1.731-0.237-2.852-0.95-3.326-2.749c-1.256,1.9-3.156,2.749-5.361,2.749
			c-3.529,0-5.634-2.206-5.634-5.396c0-3.801,2.851-5.837,7.737-5.837h2.918V113.9c0-2.646-1.255-3.665-3.834-3.665
			c-1.357,0-2.986,0.34-4.819,0.984l-0.712-2.104c2.138-0.814,4.072-1.221,6.04-1.221c4.242,0,6.177,2.172,6.177,5.87v8.28
			C362.488,123.708,363.031,124.217,363.98,124.557z M359.637,121.469v-4.242h-2.545c-3.325,0-5.09,1.256-5.09,3.801
			c0,2.172,1.119,3.359,3.258,3.359C357.193,124.387,358.619,123.402,359.637,121.469z"/>
		<path fill="#FFFFFF" d="M368.565,122.758v-21.65l2.851-0.34v21.922c0,0.984,0.339,1.494,1.188,1.494
			c0.441,0,0.814-0.068,1.154-0.204l0.746,2.002c-0.645,0.34-1.493,0.577-2.375,0.577
			C369.957,126.559,368.565,125.235,368.565,122.758z"/>
		<path fill="#FFFFFF" d="M387.4,125.371c-1.154,0.78-2.443,1.188-3.937,1.188c-2.952,0-4.718-1.73-4.718-4.988v-11.063h-3.088
			v-2.206h3.088v-4.105l2.852-0.306v4.411h4.31l-0.306,2.206h-4.004v10.928c0,1.866,0.645,2.749,2.239,2.749
			c0.849,0,1.595-0.238,2.478-0.747L387.4,125.371z"/>
		<path fill="#FFFFFF" d="M404.098,113.357v12.794h-2.851v-12.387c0-2.749-1.154-3.631-2.986-3.631
			c-2.036,0-3.495,1.323-4.718,3.258v12.76h-2.85v-25.011l2.85-0.339v10.045c1.324-1.799,3.123-2.952,5.43-2.952
			C402.197,107.895,404.098,109.998,404.098,113.357z"/>
	</g>
</g>
</svg>
