<?xml version="1.0" encoding="utf-8"?>
<!-- Generator: Adobe Illustrator 16.0.0, SVG Export Plug-In . SVG Version: 6.00 Build 0)  -->
<!DOCTYPE svg PUBLIC "-//W3C//DTD SVG 1.1//EN" "http://www.w3.org/Graphics/SVG/1.1/DTD/svg11.dtd">
<svg version="1.1" id="Layer_1" xmlns="http://www.w3.org/2000/svg" xmlns:xlink="http://www.w3.org/1999/xlink" x="0px" y="0px"
	 width="425.381px" height="132.487px" viewBox="0 0 425.381 132.487" enable-background="new 0 0 425.381 132.487"
	 xml:space="preserve">
<g>
	<linearGradient id="SVGID_1_" gradientUnits="userSpaceOnUse" x1="95.6899" y1="66.2056" x2="2.1558" y2="66.2056">
		<stop  offset="0.1441" style="stop-color:#FFFFFF;stop-opacity:0"/>
		<stop  offset="0.2023" style="stop-color:#CFDFE6;stop-opacity:0.1033"/>
		<stop  offset="0.2699" style="stop-color:#9EBFCC;stop-opacity:0.2234"/>
		<stop  offset="0.3395" style="stop-color:#74A3B6;stop-opacity:0.3468"/>
		<stop  offset="0.4098" style="stop-color:#528DA4;stop-opacity:0.4715"/>
		<stop  offset="0.481" style="stop-color:#377B96;stop-opacity:0.5978"/>
		<stop  offset="0.5534" style="stop-color:#246F8C;stop-opacity:0.7263"/>
		<stop  offset="0.6279" style="stop-color:#196786;stop-opacity:0.8585"/>
		<stop  offset="0.7076" style="stop-color:#156584"/>
	</linearGradient>
	<path fill="url(#SVGID_1_)" d="M65.089,129.133c6.211,0,12.207-0.904,17.875-2.576c0.473-1.063,0.919-2.123,1.364-3.18
		c0.612-1.479,1.203-2.959,1.763-4.455c-4.234,3.297-8.91,5.604-13.857,6.75c3.039-3.139,5.752-8.262,7.955-14.883
		c3.234-0.578,6.367-1.334,9.385-2.258c0.295-1.029,0.576-2.059,0.855-3.096c-2.986,0.996-6.111,1.814-9.335,2.455
		c1.81-6.201,3.216-13.508,4.105-21.58c3.245-0.355,6.38-0.793,9.355-1.313c0.122-0.918,0.248-1.844,0.365-2.771
		c-2.972,0.543-6.135,0.99-9.454,1.361c0.248-2.607,0.436-5.297,0.564-8.041c-0.222,0.021-0.44,0.049-0.656,0.049h-2.037
		c-0.129,2.846-0.33,5.607-0.587,8.27c-5.478,0.521-11.364,0.826-17.63,0.826c-6.248,0-12.143-0.305-17.621-0.818
		c-0.521-5.48-0.816-11.373-0.816-17.63c0-6.258,0.295-12.144,0.816-17.622c5.479-0.523,11.365-0.817,17.621-0.817
		c6.266,0,12.152,0.294,17.63,0.817c0.317,3.325,0.539,6.82,0.673,10.447l2.415-5.417c-0.108-1.606-0.222-3.193-0.372-4.752
		c0.805,0.088,1.58,0.191,2.364,0.284l1.132-2.538c-1.235-0.16-2.49-0.322-3.763-0.463c-0.89-8.075-2.296-15.39-4.105-21.586
		c5.167,1.014,10.073,2.523,14.596,4.438c-0.163-1.034-0.337-2.078-0.532-3.111c-4.67-1.854-9.691-3.278-14.969-4.219
		c-2.203-6.636-4.922-11.767-7.977-14.908c8.365,1.93,15.916,7.206,21.935,14.837c-0.609-2.178-1.327-4.298-2.146-6.378
		c-2.354-2.339-4.875-4.386-7.535-6.089c2.042,0.693,4.041,1.494,5.984,2.399c-0.547-1.227-1.104-2.454-1.681-3.665
		c-7.306-2.97-15.283-4.621-23.64-4.621c-34.718,0-62.975,28.246-62.975,62.972c0,15.884,5.914,30.412,15.655,41.498
		c0.147,0.174,0.3,0.348,0.454,0.52c0.116,0.125,0.229,0.25,0.346,0.379C30.125,121.236,46.685,129.133,65.089,129.133z
		 M65.121,126.521c-4.251,0-8.649-5.539-12.082-15.254c3.913,0.566,7.947,0.857,12.082,0.857c4.137,0,8.182-0.291,12.092-0.857
		C73.78,120.982,69.382,126.521,65.121,126.521z M58.038,125.703c-10.226-2.369-19.255-9.766-25.723-20.313
		c5.433,2.432,11.399,4.256,17.747,5.398C52.268,117.428,54.983,122.555,58.038,125.703z M65.121,87.375
		c6.05,0,11.852-0.285,17.354-0.795c-0.95,8.447-2.454,15.813-4.322,21.832c-4.198,0.672-8.557,1.027-13.031,1.027
		s-8.823-0.363-13.029-1.027c-1.857-6.02-3.363-13.385-4.313-21.824C53.271,87.096,59.083,87.375,65.121,87.375z M49.16,107.891
		c-6.961-1.375-13.408-3.613-19.127-6.557c-2.939-5.713-5.184-12.17-6.548-19.129c6.194,1.82,13.501,3.227,21.569,4.105
		C45.943,94.389,47.347,101.695,49.16,107.891z M44.783,83.594c-8.438-0.951-15.808-2.451-21.826-4.316
		c-0.671-4.201-1.034-8.555-1.034-13.027c0-4.475,0.363-8.835,1.034-13.039c6.019-1.859,13.388-3.363,21.826-4.313
		c-0.518,5.502-0.793,11.305-0.793,17.352C43.99,72.291,44.265,78.104,44.783,83.594z M45.054,46.174
		c-8.068,0.89-15.375,2.293-21.578,4.106c1.373-6.959,3.617-13.41,6.557-19.127c5.719-2.94,12.166-5.185,19.127-6.55
		C47.347,30.792,45.943,38.107,45.054,46.174z M82.474,45.905c-5.493-0.509-11.304-0.79-17.354-0.79
		c-6.037,0-11.85,0.281-17.342,0.79c0.949-8.449,2.455-15.8,4.313-21.827c4.197-0.663,8.555-1.024,13.029-1.024
		c4.482,0,8.833,0.361,13.039,1.034C80.02,30.112,81.524,37.462,82.474,45.905z M65.121,5.963c4.262,0,8.659,5.537,12.092,15.252
		c-3.918-0.562-7.955-0.855-12.092-0.855c-4.135,0-8.169,0.301-12.082,0.855C56.471,11.5,60.87,5.963,65.121,5.963z M50.062,21.704
		c-6.348,1.133-12.314,2.968-17.747,5.387C38.783,16.557,47.812,9.156,58.038,6.788C54.983,9.929,52.268,15.058,50.062,21.704z
		 M45.774,9.166c-7.061,4.528-13.157,11.456-17.71,20.021C19.5,33.737,12.582,39.833,8.043,46.901
		C14.064,29.204,28.081,15.183,45.774,9.166z M25.974,33.433c-2.422,5.432-4.258,11.402-5.398,17.747
		c-6.639,2.209-11.768,4.925-14.907,7.98C8.036,48.93,15.428,39.903,25.974,33.433z M20.096,54.161
		c-0.554,3.911-0.854,7.956-0.854,12.082c0,4.137,0.301,8.175,0.854,12.091C10.389,74.9,4.845,70.501,4.845,66.243
		C4.845,61.989,10.389,57.593,20.096,54.161z M20.576,81.309c1.141,6.346,2.977,12.314,5.398,17.748
		C15.428,92.584,8.036,83.561,5.668,73.332C8.808,76.389,13.937,79.105,20.576,81.309z M28.056,103.307
		c4.561,8.566,10.646,15.484,17.718,20.014c-17.693-6.02-31.71-20.027-37.73-37.727C12.574,92.66,19.5,98.746,28.056,103.307z"/>
</g>
<g>
	<path fill="#829B3C" d="M154.685,17.479c-4.012,0-7.262,3.359-7.262,7.504c0,1.579,0.475,3.045,1.281,4.254l-11.086,11.087
		c-1.299-1.251-3.038-2.017-4.951-2.017c-2.463,0-4.635,1.266-5.951,3.201l-14.711-5.936c0.018-0.211,0.027-0.426,0.027-0.644
		c0-4.144-3.252-7.503-7.258-7.503c-4.013,0-7.265,3.359-7.265,7.503c0,3.083,1.794,5.726,4.364,6.882l-7.15,25.811
		c-0.386-0.064-0.782-0.101-1.184-0.101c-1.783,0-3.414,0.665-4.68,1.765l-14.566-9.472c0.185-0.661,0.285-1.36,0.285-2.083
		c0-4.145-3.25-7.504-7.262-7.504s-7.262,3.359-7.262,7.504c0,4.143,3.25,7.502,7.262,7.502c2.213,0,4.193-1.025,5.523-2.637
		l14.141,9.195c-0.45,0.979-0.707,2.076-0.707,3.234c0,4.143,3.254,7.504,7.266,7.504c4.01,0,7.262-3.361,7.262-7.504
		c0-2.574-1.256-4.845-3.17-6.197l7.311-26.398c2.656-0.064,4.957-1.6,6.17-3.848l14.422,5.818c-0.084,0.455-0.131,0.928-0.131,1.41
		c0,4.143,3.252,7.502,7.264,7.502c4.006,0,7.26-3.359,7.26-7.502c0-1.007-0.191-1.964-0.537-2.84l11.557-11.557
		c1.092,0.68,2.373,1.072,3.738,1.072c4.012,0,7.26-3.362,7.26-7.504C161.945,20.838,158.697,17.479,154.685,17.479z M67.318,62.108
		c-2.283,0-4.137-1.963-4.137-4.377c0-2.416,1.854-4.381,4.137-4.381c2.282,0,4.137,1.965,4.137,4.381
		C71.455,60.145,69.6,62.108,67.318,62.108z M93.541,79.404c-2.281,0-4.139-1.965-4.139-4.379c0-2.416,1.857-4.378,4.139-4.378
		c2.277,0,4.137,1.962,4.137,4.378C97.677,77.439,95.818,79.404,93.541,79.404z M104.775,39.309c-2.283,0-4.143-1.964-4.143-4.38
		c0-2.413,1.859-4.376,4.143-4.376c2.276,0,4.136,1.963,4.136,4.376C108.911,37.345,107.051,39.309,104.775,39.309z M132.667,50.189
		c-2.283,0-4.137-1.964-4.137-4.378s1.854-4.381,4.137-4.381c2.279,0,4.137,1.967,4.137,4.381S134.947,50.189,132.667,50.189z
		 M154.685,29.363c-2.283,0-4.137-1.966-4.137-4.38c0-2.416,1.854-4.381,4.137-4.381c2.281,0,4.135,1.965,4.135,4.381
		C158.82,27.397,156.966,29.363,154.685,29.363z"/>
</g>
<g>
	<path fill="#156584" d="M138.223,64.608l-2.106,3.101c-2.75-1.813-5.089-2.691-8.015-2.691c-3.627,0-5.967,1.697-5.967,4.329
		c0,2.633,1.755,3.803,6.845,5.148c6.494,1.696,10.121,4.153,10.121,9.536c0,6.26-5.675,9.243-11.876,9.243
		c-5.207,0-8.834-1.696-11.525-4.036l2.632-2.984c2.516,1.872,5.324,3.042,8.775,3.042c4.095,0,6.845-1.872,6.845-4.973
		c0-3.218-1.58-4.388-7.664-6.025c-6.611-1.755-9.244-4.505-9.244-8.834c0-4.855,4.622-8.366,10.882-8.366
		C132.139,61.098,135.298,62.385,138.223,64.608z"/>
	<path fill="#156584" d="M172.737,77.128c0,9.419-4.096,16.146-11.993,16.146c-3.452,0-6.26-1.229-8.19-3.628v14.685l-4.914,0.585
		V61.8h4.212l0.409,4.271c2.224-3.159,5.5-4.973,9.127-4.973C169.461,61.098,172.737,67.358,172.737,77.128z M167.472,77.128
		c0-8.19-2.457-12.11-7.254-12.11c-3.394,0-5.968,2.34-7.664,4.915v15.386c1.638,2.457,4.095,3.92,7.079,3.92
		C164.722,89.238,167.472,85.377,167.472,77.128z"/>
	<path fill="#156584" d="M205.145,89.822l-1.17,3.452c-2.983-0.409-4.914-1.638-5.733-4.739c-2.164,3.276-5.44,4.739-9.243,4.739
		c-6.084,0-9.712-3.803-9.712-9.302c0-6.553,4.915-10.063,13.339-10.063h5.031v-2.457c0-4.563-2.164-6.318-6.61-6.318
		c-2.341,0-5.148,0.585-8.308,1.696l-1.229-3.627c3.686-1.404,7.021-2.106,10.413-2.106c7.313,0,10.647,3.744,10.647,10.121v14.275
		C202.57,88.36,203.507,89.238,205.145,89.822z M197.656,84.499v-7.313h-4.388c-5.733,0-8.775,2.165-8.775,6.553
		c0,3.744,1.931,5.792,5.616,5.792C193.444,89.53,195.901,87.834,197.656,84.499z"/>
	<path fill="#156584" d="M229.655,91.227c-1.989,1.346-4.213,2.048-6.787,2.048c-5.089,0-8.132-2.983-8.132-8.601V65.603h-5.323
		V61.8h5.323v-7.079l4.915-0.526V61.8h7.43l-0.527,3.802h-6.902V84.44c0,3.218,1.111,4.739,3.86,4.739
		c1.463,0,2.75-0.41,4.271-1.287L229.655,91.227z"/>
	<path fill="#156584" d="M241.82,50.685c0,1.931-1.403,3.393-3.51,3.393c-2.048,0-3.452-1.462-3.452-3.393s1.404-3.393,3.452-3.393
		C240.417,47.292,241.82,48.754,241.82,50.685z M240.826,92.572h-4.914V61.8h4.914V92.572z"/>
	<path fill="#156584" d="M275.751,89.822l-1.17,3.452c-2.983-0.409-4.914-1.638-5.733-4.739c-2.164,3.276-5.44,4.739-9.243,4.739
		c-6.084,0-9.711-3.803-9.711-9.302c0-6.553,4.914-10.063,13.338-10.063h5.031v-2.457c0-4.563-2.164-6.318-6.61-6.318
		c-2.341,0-5.148,0.585-8.308,1.696l-1.229-3.627c3.686-1.404,7.021-2.106,10.413-2.106c7.313,0,10.647,3.744,10.647,10.121v14.275
		C273.177,88.36,274.113,89.238,275.751,89.822z M268.263,84.499v-7.313h-4.388c-5.733,0-8.775,2.165-8.775,6.553
		c0,3.744,1.931,5.792,5.616,5.792C264.051,89.53,266.508,87.834,268.263,84.499z"/>
	<path fill="#156584" d="M284.231,86.723V49.397l4.914-0.585v37.793c0,1.696,0.585,2.574,2.048,2.574
		c0.761,0,1.404-0.117,1.989-0.352l1.287,3.451c-1.111,0.586-2.574,0.995-4.096,0.995C286.63,93.274,284.231,90.992,284.231,86.723z
		"/>
	<path fill="#156584" d="M308.04,50.685c0,1.931-1.403,3.393-3.51,3.393c-2.048,0-3.451-1.462-3.451-3.393s1.403-3.393,3.451-3.393
		C306.637,47.292,308.04,48.754,308.04,50.685z M307.046,92.572h-4.914V61.8h4.914V92.572z"/>
	<path fill="#156584" d="M334.189,91.227c-1.989,1.346-4.213,2.048-6.787,2.048c-5.089,0-8.132-2.983-8.132-8.601V65.603h-5.323
		V61.8h5.323v-7.079l4.915-0.526V61.8h7.43l-0.526,3.802h-6.903V84.44c0,3.218,1.111,4.739,3.86,4.739
		c1.463,0,2.75-0.41,4.271-1.287L334.189,91.227z"/>
	<path fill="#156584" d="M346.355,50.685c0,1.931-1.403,3.393-3.51,3.393c-2.048,0-3.452-1.462-3.452-3.393s1.404-3.393,3.452-3.393
		C344.952,47.292,346.355,48.754,346.355,50.685z M345.361,92.572h-4.914V61.8h4.914V92.572z"/>
	<path fill="#156584" d="M377.652,64.374l-2.398,3.101c-2.048-1.521-4.036-2.281-6.669-2.281c-5.031,0-8.249,3.919-8.249,12.168
		c0,8.19,3.218,11.701,8.249,11.701c2.633,0,4.505-0.819,6.786-2.398l2.281,3.217c-2.632,2.224-5.733,3.394-9.243,3.394
		c-8.19,0-13.339-5.909-13.339-15.854c0-9.828,5.09-16.322,13.339-16.322C371.978,61.098,374.845,62.034,377.652,64.374z"/>
	<path fill="#156584" d="M404.21,64.608l-2.105,3.101c-2.75-1.813-5.09-2.691-8.016-2.691c-3.627,0-5.967,1.697-5.967,4.329
		c0,2.633,1.755,3.803,6.845,5.148c6.494,1.696,10.121,4.153,10.121,9.536c0,6.26-5.675,9.243-11.876,9.243
		c-5.207,0-8.834-1.696-11.525-4.036l2.633-2.984c2.516,1.872,5.324,3.042,8.775,3.042c4.096,0,6.845-1.872,6.845-4.973
		c0-3.218-1.579-4.388-7.664-6.025c-6.61-1.755-9.243-4.505-9.243-8.834c0-4.855,4.622-8.366,10.882-8.366
		C398.126,61.098,401.285,62.385,404.21,64.608z"/>
</g>
<g>
	<g>
		<path fill="#156584" d="M411.443,54.043h-2.408v7.842h-1.78v-7.842h-2.489v-1.405h6.865L411.443,54.043z"/>
		<path fill="#156584" d="M421.417,61.885h-1.726l-0.241-3.867c-0.08-1.365-0.147-2.797-0.12-3.774l-1.687,6.638h-1.673
			l-1.793-6.651c0.054,1.244,0.027,2.516-0.054,3.84l-0.228,3.814h-1.713l0.736-9.247h2.275l1.646,6.477l1.553-6.477h2.302
			L421.417,61.885z"/>
	</g>
</g>
</svg>
