<?xml version="1.0" encoding="utf-8"?>
<!-- Generator: Adobe Illustrator 16.0.0, SVG Export Plug-In . SVG Version: 6.00 Build 0)  -->
<!DOCTYPE svg PUBLIC "-//W3C//DTD SVG 1.1//EN" "http://www.w3.org/Graphics/SVG/1.1/DTD/svg11.dtd">
<svg version="1.1" id="Layer_1" xmlns="http://www.w3.org/2000/svg" xmlns:xlink="http://www.w3.org/1999/xlink" x="0px" y="0px"
	 width="48px" height="48px" viewBox="0 0 48 48" enable-background="new 0 0 48 48" xml:space="preserve">
<circle fill="#26B7EB" cx="24" cy="24" r="22"/>
<g>
	<g>
		<path fill="#FFFFFF" d="M35.871,16.025c-0.824,0.458-1.833,0.733-2.75,0.825c1.009-0.641,1.742-1.65,2.108-2.841
			c-0.917,0.55-1.925,1.008-3.116,1.283c-0.917-1.008-2.108-1.65-3.483-1.65c-2.659,0-4.859,2.292-4.859,5.225
			c0,0.367,0,0.825,0.092,1.191c-4.034-0.184-7.608-2.292-9.992-5.408c-0.458,0.733-0.642,1.65-0.642,2.658
			c0,1.833,0.826,3.392,2.109,4.309c-0.826,0-1.559-0.275-2.201-0.642v0.092c0,2.474,1.65,4.583,3.851,5.133
			c-0.367,0.092-0.826,0.183-1.284,0.183c-0.274,0-0.642,0-0.917-0.091c0.642,2.108,2.384,3.575,4.492,3.575
			c-1.65,1.375-3.759,2.2-5.958,2.2c-0.367,0-0.734,0-1.192-0.093c2.109,1.468,4.676,2.385,7.426,2.385
			c8.892,0,13.75-7.885,13.75-14.76c0-0.184,0-0.458,0-0.641C34.404,18.042,35.229,17.125,35.871,16.025z"/>
	</g>
</g>
</svg>
