<?xml version="1.0" encoding="utf-8"?>
<!-- Generator: Adobe Illustrator 16.0.0, SVG Export Plug-In . SVG Version: 6.00 Build 0)  -->
<!DOCTYPE svg PUBLIC "-//W3C//DTD SVG 1.1//EN" "http://www.w3.org/Graphics/SVG/1.1/DTD/svg11.dtd">
<svg version="1.1" id="Layer_1" xmlns="http://www.w3.org/2000/svg" xmlns:xlink="http://www.w3.org/1999/xlink" x="0px" y="0px"
	 width="48px" height="48px" viewBox="0 0 48 48" enable-background="new 0 0 48 48" xml:space="preserve">
<circle fill="#CF2127" cx="24" cy="24" r="22"/>
<path fill="#FFFFFF" d="M34.267,18.958c0-0.092,0-0.184-0.092-0.275v-0.092c-0.275-0.825-1.008-1.375-1.925-1.375h0.184
	c0,0-3.575-0.55-8.434-0.55c-4.767,0-8.434,0.55-8.434,0.55h0.184c-0.917,0-1.65,0.55-1.925,1.375v0.092
	c0,0.091,0,0.183-0.091,0.275C13.642,19.875,13.367,21.8,13.367,24c0,2.2,0.275,4.125,0.367,5.042c0,0.091,0,0.184,0.091,0.274
	v0.092c0.275,0.825,1.009,1.375,1.925,1.375h-0.184c0,0,3.575,0.55,8.434,0.55c4.767,0,8.434-0.55,8.434-0.55H32.25
	c0.917,0,1.649-0.55,1.925-1.375v-0.092c0-0.091,0-0.184,0.092-0.274c0.092-0.917,0.366-2.842,0.366-5.042
	C34.633,21.8,34.45,19.875,34.267,18.958z M27.117,24.458l-4.309,3.117c-0.092,0.092-0.184,0.092-0.275,0.092s-0.183,0-0.275-0.092
	c-0.184-0.092-0.275-0.275-0.275-0.458v-6.234c0-0.184,0.091-0.367,0.275-0.458c0.183-0.092,0.367-0.092,0.55,0l4.309,3.116
	C27.208,23.633,27.3,23.816,27.3,24C27.392,24.184,27.3,24.367,27.117,24.458z"/>
</svg>
